# xmcd CD database file
#
# Track frame offsets:
#	150
#	15735
#	27872
#	42847
#
# Disc length: 757 seconds
#
# Revision: 0
# Processed by: cddbd v1.5.1PL0 Copyright (c) Steve Scherf et al.
# Submitted via: CDex 1.51
#
DISCID=2502f304
DTITLE=Mark O'Connor's Hot Swing Trio - In Full Swing [CD2 Of 2: Radio Edits)
DYEAR=1900
DGENRE=Jazz
TTITLE0=Honeysuckle Rose
TTITLE1=As Time Goes By
TTITLE2=Limehouse Blues
TTITLE3=Fascinating Rhyhm
EXTD=
EXTT0=
EXTT1=
EXTT2=
EXTT3=
PLAYORDER=
